<?xml version="1.0" encoding="utf-8"?>
<!-- Generator: Adobe Illustrator 19.0.0, SVG Export Plug-In . SVG Version: 6.00 Build 0)  -->
<svg version="1.1" id="Layer_1" xmlns="http://www.w3.org/2000/svg" xmlns:xlink="http://www.w3.org/1999/xlink" x="0px" y="0px"
	 viewBox="-292 381 27 32" style="enable-background:new -292 381 27 32;" xml:space="preserve">
<style type="text/css">
	.st0{filter:url(#filter-1);}
	.st1{fill:#FFCE33;}
</style>
<filter  width="200%" height="200%" y="-50%" x="-50%" id="filter-1" filterUnits="objectBoundingBox">
	<feOffset  result="shadowOffsetOuter1" in="SourceAlpha" dy="2" dx="0"></feOffset>
	<feGaussianBlur  stdDeviation="2" result="shadowBlurOuter1" in="shadowOffsetOuter1"></feGaussianBlur>
	
		<feColorMatrix  type="matrix" values="0 0 0 0 0   0 0 0 0 0   0 0 0 0 0  0 0 0 0.05 0" result="shadowMatrixOuter1" in="shadowBlurOuter1">
		</feColorMatrix>
	<feMerge>
		<feMergeNode  in="shadowMatrixOuter1"></feMergeNode>
		<feMergeNode  in="SourceGraphic"></feMergeNode>
	</feMerge>
</filter>
<title>ic_home</title>
<desc>Created with Sketch.</desc>
<g id="OPt-2">
	<g id="prog2_pro3_Mobile-Portrait_opt2-Copy-2" transform="translate(-10.000000, -15.000000)">
		<g id="nav">
			<g id="Group-6" class="st0">
				<g id="ic_home_1_" transform="translate(14.000000, 17.000000)">
					<g id="Group_1_" transform="translate(9.600000, 12.000000) scale(-1, 1) translate(-9.600000, -12.000000) ">
						<path id="Shape_5_" class="st1" d="M293.5,387.9l0.9,0.7l1.4,1.1c0.2-1,0.8-1.8,1.5-2.3l-2.8-2.1l0.9-1.1
							c0.4-0.5,0.3-1.1-0.2-1.5l-2.1,2.8c-0.3,0.4-0.4,0.9-0.3,1.4C292.9,387.2,293.2,387.6,293.5,387.9L293.5,387.9z"/>
						<path id="Shape_4_" class="st1" d="M302.3,397.6c-3.1-1.6-5.8-2.1-6.5-1c-0.6,0.9,0.4,2.6,2.3,4.4l-1.8,2.9h-1.2
							c-0.6,0-1,0.5-1,1.1h1.6h2.1l0.7-1.1l1-1.7l0.4-0.7c-0.1-0.2-0.2-0.5-0.2-0.8c0-0.9,0.7-1.6,1.6-1.6c0,0,0.1,0,0.1,0
							L302.3,397.6L302.3,397.6z"/>
						<path id="Shape_3_" class="st1" d="M311,387.5c-0.2-0.8-0.8-1.4-1.7-1.4c-0.2,0-0.5,0-0.7,0.1c-0.6,0.3-1,0.9-1,1.6v8.2
							c0,0.6-0.5,1.1-1,1.1c-0.4,0-0.8-0.3-0.9-0.6c0,0,0-0.1,0-0.1l-1-2.4l1.9-6.5c0,0,0,0,0,0c0-0.1,0-0.1,0.1-0.2
							c0.7-2.5-0.5-5.2-2.9-6.3l-4.4,1.6c-0.5,0.2-0.8,0.8-0.7,1.3l1.1-0.4c0.4-0.2,0.9,0.1,1.1,0.5c0.2,0.5-0.1,0.9-0.5,1.1
							l-1.2,0.4c0.2,0.5,0.8,0.8,1.3,0.6l1.2-0.5c0.1,0.5-0.2,1-0.7,1.2l-2.3,0.9c-1,0.4-1.7,1.4-1.7,2.6c0,0,0,0.1,0,0.1
							c0,0,0,0.1,0,0.1c0,0,0,0,0,0h-3.7v-1.4c0-0.4-0.5-0.7-0.8-0.9l-0.2-0.1v3.5c0,1,0.8,1.8,1.8,1.8h4.1c0.4,0,0.7,0,1.1,0.1
							c0,0,0,0,0,0c0,0,0,0,0.1,0c0,0,0,0,0,0c1.8,0.5,3.2,2.1,3.4,4c0,0,0,0.1,0,0.1c0,0.1,0,0.2,0,0.3c0,1.1-0.4,2.1-1,2.9
							c0,0.1-0.1,0.1-0.1,0.2c-0.1,0.2-0.2,0.4-0.2,0.7c0,0.6,0.5,1.2,1.1,1.2c0.2,0,0.4-0.1,0.6-0.2l2.3-1.4
							c0.3,0.2,0.5,0.5,0.5,0.9c0,0.3-0.1,0.5-0.3,0.7l-1,1.1h-1.2h0h-0.1c-0.6,0-1,0.5-1,1.1h2.1h0h1.3c0-1,0.8-1.8,1.8-1.8v-3.1
							c-0.8-0.2-1.4-0.9-1.4-1.8c0,0,0-0.1,0-0.1c0.1,0,0.2,0,0.3,0c0.4,0,0.8-0.1,1.1-0.3c0.6-0.4,1-1.1,1-1.9v-8.2
							c0-0.4,0.3-0.7,0.7-0.7c0.4,0,0.7,0.3,0.7,0.7c-0.5,0.3-0.8,0.9-0.8,1.5c0,1,0.8,1.8,1.8,1.8v-3.3
							C311,387.7,311,387.6,311,387.5L311,387.5z"/>
					</g>
				</g>
			</g>
		</g>
	</g>
</g>
</svg>
